<?xml version="1.0" encoding="utf-8"?>
<svg version="1.1" xmlns="http://www.w3.org/2000/svg" viewBox="0 0 30 30">
  <rect width="30" height="30" rx="7" fill="#0d0d0e"/>
  <path fill="#f5f5f5" d="M24.51,28.51H5.49c-2.21,0-4-1.79-4-4V5.49c0-2.21,1.79-4,4-4h19.03c2.21,0,4,1.79,4,4v19.03
    C28.51,26.72,26.72,28.51,24.51,28.51z" opacity="0"/>
  <g>
    <path fill="#f5f5f5" d="M15.47,7.1l-1.3,1.85c-0.2,0.29-0.54,0.47-0.9,0.47h-7.1V7.09C6.16,7.1,15.47,7.1,15.47,7.1z"/>
    <polygon fill="#f5f5f5" points="24.3,7.1 13.14,22.91 5.7,22.91 16.86,7.1"/>
    <path fill="#e8b86d" d="M14.53,22.91l1.31-1.86c0.2-0.29,0.54-0.47,0.9-0.47h7.09v2.33H14.53z"/>
  </g>
</svg>
